<svg width="140" height="33" viewBox="0 0 140 33" fill="none" xmlns="http://www.w3.org/2000/svg">
<path fill-rule="evenodd" clip-rule="evenodd" d="M41.5791 16.5029C41.5791 7.39251 37.1329 -0.240304 32.2061 0.00578958C27.2793 0.251883 22.9532 7.51556 22.833 16.5029C22.712 25.4902 27.0381 32.9999 32.2061 32.9999C37.3731 32.9999 41.5791 25.6132 41.5791 16.5029ZM34.2618 11.5087C33.7227 10.707 33.0538 10.2245 32.3262 10.2245C30.5235 10.2245 29.0811 13.1796 29.0811 16.6269C29.0811 20.0732 30.5235 23.0282 32.3262 23.0282C34.128 23.0282 35.5704 20.0732 35.5704 16.6269C35.5704 14.5722 35.0577 12.6913 34.2618 11.5087Z" fill="#00646B"/>
<path fill-rule="evenodd" clip-rule="evenodd" d="M59.1245 15.8877C59.1245 8.25391 55.7593 2.09863 51.5542 2.09863C47.3481 2.09863 43.9829 8.25391 43.9829 15.8877C43.9829 23.5205 47.3481 29.6758 51.5542 29.6758C55.7593 29.6758 59.1245 23.5205 59.1245 15.8877ZM53.2349 19.8506C52.7778 20.6055 52.1919 21.0586 51.5532 21.0586C50.0933 21.0586 48.9097 18.6885 48.9097 15.7646C48.9097 12.8408 50.0933 10.4707 51.5532 10.4707C53.0132 10.4707 54.1968 12.8408 54.1968 15.7646C54.1968 17.4102 53.8218 18.8799 53.2349 19.8506Z" fill="#00646B"/>
<path fill-rule="evenodd" clip-rule="evenodd" d="M61.5278 25.1211V4.68457H71.2622C76.3091 4.68457 79.4331 8.87012 79.4331 14.9033C79.4331 20.9355 76.5493 24.998 70.9009 25.1211H61.5278ZM68.7378 19.2119V10.4707H70.0601C71.6216 10.8398 72.8237 12.3174 72.8237 14.7793C72.9438 17.3652 71.6216 18.8428 70.3003 19.0889L68.7378 19.2119Z" fill="#00646B"/>
<path fill-rule="evenodd" clip-rule="evenodd" d="M79.3135 4.68457H87.1246L88.9272 14.7798L91.3306 4.68457H97.2191L99.5023 14.6567L101.545 4.80768H109.116L103.828 25.2444H97.0989L94.2148 13.7949L91.3306 25.1213H84.7212L79.3135 4.68457Z" fill="#00646B"/>
<path d="M118.129 4.68457H110.918V25.1213H118.129V4.68457Z" fill="#00646B"/>
<path fill-rule="evenodd" clip-rule="evenodd" d="M121.613 4.68457H128.463L133.15 14.4105V4.68457H140V25.2444H133.39L128.463 15.2723V25.2444H121.613V4.68457Z" fill="#00646B"/>
<path fill-rule="evenodd" clip-rule="evenodd" d="M19.2275 9.11696C17.5451 10.1019 15.7425 11.0868 14.0601 11.9485C11.2961 7.88583 6.72961 10.3481 6.84978 14.9033C6.84978 17.858 8.17167 19.8278 10.8154 19.9509C12.618 19.9509 13.5794 19.0891 13.8197 17.4886H9.85408V12.8103H20.4292V15.6419C20.4292 21.7976 16.824 25.6141 10.5751 25.6141C4.20601 25.8603 0 22.0438 0 15.0264C0 8.62451 3.48498 4.19245 10.5751 4.06934C14.5408 4.06934 17.4249 5.79291 19.2275 9.11696Z" fill="#00646B"/>
</svg>
